PathFileType	4	(X/Y/Z)	/Users/itak/Documents/Research/Walk-IL/dataset/trc/00370_00011.trc
DataRate	CameraRate	NumFrames	NumMarkers	Units	OrigDataRate	OrigDataStartFrame	OrigNumFrames
100.000000	100.000000	4	57	mm	100.000000	193	516
Frame#	Time	RPSI			LPSI			L3			STRN			T10			C7			CLAV			RBAK			LBAK			LSHO			LUPA			LAEL			LAOL			LWTS			LWPS			LFRA			LIFD			LHPS			LHTS			RSHO			RUPA			RAEL			RAOL			RWPS			RFRA			RIFD			RHTS			RHPS			RBHD			LFHD			RFHD			LBHD			LHIP			RHIP			RASI			LASI			LKNE			LTHI			LANK			LTIP			LTOE			LMT1			LMT5			LHEE			RKNE			RTHI			RANK			RTIP			RTOE			RMT1			RMT5			RHEE			RWTS			*53			*54			*55			*56			
		X1	Y1	Z1	X2	Y2	Z2	X3	Y3	Z3	X4	Y4	Z4	X5	Y5	Z5	X6	Y6	Z6	X7	Y7	Z7	X8	Y8	Z8	X9	Y9	Z9	X10	Y10	Z10	X11	Y11	Z11	X12	Y12	Z12	X13	Y13	Z13	X14	Y14	Z14	X15	Y15	Z15	X16	Y16	Z16	X17	Y17	Z17	X18	Y18	Z18	X19	Y19	Z19	X20	Y20	Z20	X21	Y21	Z21	X22	Y22	Z22	X23	Y23	Z23	X24	Y24	Z24	X25	Y25	Z25	X26	Y26	Z26	X27	Y27	Z27	X28	Y28	Z28	X29	Y29	Z29	X30	Y30	Z30	X31	Y31	Z31	X32	Y32	Z32	X33	Y33	Z33	X34	Y34	Z34	X35	Y35	Z35	X36	Y36	Z36	X37	Y37	Z37	X38	Y38	Z38	X39	Y39	Z39	X40	Y40	Z40	X41	Y41	Z41	X42	Y42	Z42	X43	Y43	Z43	X44	Y44	Z44	X45	Y45	Z45	X46	Y46	Z46	X47	Y47	Z47	X48	Y48	Z48	X49	Y49	Z49	X50	Y50	Z50	X51	Y51	Z51	X52	Y52	Z52	X53	Y53	Z53	X54	Y54	Z54	X55	Y55	Z55	X56	Y56	Z56	X57	Y57	Z57	

194	1.93	-1151.70703125	944.364501953125	-83.54465484619141	-1150.939453125	953.2107543945312	-213.0174102783203	-1153.80517578125	1015.908325195312	-156.4453735351562	-906.1843872070312	1181.39990234375	-144.5361175537109	-1149.02880859375	1134.364135742188	-180.1997528076172	-1086.005004882812	1374.911499023438	-194.5138244628906	-939.3971557617188	1309.796264648438	-153.6960601806641	-1154.1142578125	1238.238159179688	-141.5220489501953	-1077.607788085938	1337.559814453125	-297.3106384277344	-980.6533203125	1352.134643554688	-331.509765625	-976.0154418945312	1228.542114257812	-397.3998413085938	-923.7664794921875	1028.064819335938	-391.6747741699219	-998.2698364257812	1003.5888671875	-359.1791687011719	-775.8475952148438	857.4498291015625	-261.1783142089844	-789.4125366210938	817.8323364257812	-316.7867431640625	-877.7531127929688	933.6116943359375	-371.2050170898438	-719.4573364257812	714.9866943359375	-200.3715057373047	-772.2396850585938	756.3536987304688	-288.1173400878906	-734.1786499023438	788.677978515625	-246.0215454101562	-1070.064208984375	1359.253784179688	-22.87467193603516	-1106.318725585938	1298.885009765625	32.34413528442383	-1174.792846679688	1041.3369140625	49.63620758056641	-1171.557739257812	1038.142700195312	-44.75443649291992	-1177.23388671875	790.287353515625	93.70585632324219	-1173.311645507812	971.7550659179688	67.40301513671875	-1156.906005859375	620.5760498046875	58.78417205810547	-1123.775634765625	686.1124877929688	69.43590545654297	-1188.182006835938	705.872802734375	94.94159698486328	-1032.229736328125	1579.952758789062	-86.94332885742188	-840.2379150390625	1561.934936523438	-165.3407440185547	-871.6114501953125	1560.166259765625	-69.74835205078125	-1013.348999023438	1583.72021484375	-230.1314239501953	-1070.388916015625	892.2723388671875	-320.2060241699219	-1065.248291015625	892.2789306640625	21.94442749023438	-964.3590698242188	920.6614990234375	-29.24208068847656	-945.4249267578125	910.4628295898438	-266.3772888183594	-1099.051391601562	436.0111389160156	-288.9718933105469	-1073.661987304688	573.50634765625	-301.7760314941406	-1302.235595703125	50.11035537719727	-253.7159576416016	-1199.31982421875	233.3979187011719	-280.8775634765625	-1096.125732421875	44.33448028564453	-193.86083984375	-1163.750610351562	35.78874588012695	-151.6692810058594	-1177.314697265625	44.35531616210938	-266.287109375	-1335.5390625	49.15712738037109	-185.0774536132812	-854.9441528320312	462.5685119628906	-18.29636573791504	-935.638916015625	708.6046752929688	23.97310066223145	-756.1741333007812	55.74488830566406	-63.05572509765625	-802.8931274414062	355.4022216796875	-27.8211784362793	-570.8634643554688	121.9199447631836	-66.87109375	-607.87158203125	99.08016204833984	-120.3483734130859	-663.880859375	71.28946685791016	-20.27164077758789	-792.4447021484375	46.74234008789062	-120.435905456543	-1114.34033203125	790.9944458007812	48.38683700561523	nan	nan	nan	nan	nan	nan	nan	nan	nan	nan	nan	nan	
195	1.94	-1144.888916015625	942.8453369140625	-82.84112548828125	-1144.0048828125	951.85205078125	-212.3052215576172	-1146.619873046875	1014.376770019531	-155.6995391845703	-898.9171752929688	1179.364990234375	-143.3480072021484	-1141.692138671875	1132.8310546875	-179.3127899169922	-1078.276123046875	1373.326538085938	-193.3542022705078	-931.8576049804688	1307.883056640625	-152.3995666503906	-1146.723999023438	1236.76220703125	-140.4990692138672	-1069.823852539062	1336.031860351562	-296.1483764648438	-972.806640625	1350.382446289062	-330.2954406738281	-968.5440673828125	1226.737915039062	-396.1861572265625	-917.0631713867188	1026.081298828125	-390.3297729492188	-991.86572265625	1001.870666503906	-358.0155944824219	-769.579345703125	855.5040893554688	-259.378173828125	-783.400634765625	815.644775390625	-314.8078002929688	-871.3814086914062	931.547607421875	-369.6493835449219	-714.256103515625	712.6849975585938	-197.9241790771484	-766.4575805664062	754.110595703125	-285.9967651367188	-728.6571655273438	786.34765625	-243.7122650146484	-1062.485107421875	1357.52783203125	-21.65151023864746	-1098.956176757812	1297.159912109375	33.46814346313477	-1168.517333984375	1039.826171875	49.98769378662109	-1164.967163085938	1036.85302734375	-44.37474822998047	-1173.708862304688	788.9866943359375	93.87419891357422	-1167.609375	970.3477172851562	67.73786163330078	-1155.8896484375	619.0928955078125	58.41991424560547	-1121.859130859375	683.991455078125	69.15176391601562	-1185.92919921875	704.6976318359375	94.82398986816406	-1024.890747070312	1578.15869140625	-85.78648376464844	-832.645751953125	1560.318481445312	-163.5687866210938	-864.3616943359375	1558.490234375	-68.05433654785156	-1005.560302734375	1581.968994140625	-228.9286499023438	-1063.595703125	890.73095703125	-319.5015258789062	-1058.625122070312	890.3992919921875	22.65546417236328	-957.6626586914062	918.5618896484375	-28.39224243164062	-938.5944213867188	908.4835205078125	-265.5750427246094	-1095.338500976562	434.92529296875	-288.3833618164062	-1069.025024414062	572.1881713867188	-301.0654602050781	-1301.96923828125	50.71745681762695	-253.3106842041016	-1197.3974609375	233.2980804443359	-280.3546752929688	-1096.006958007812	44.13049697875977	-193.7445678710938	-1163.810913085938	35.5268669128418	-151.5321960449219	-1177.2470703125	44.54320526123047	-266.080322265625	-1335.435180664062	50.20375061035156	-184.7312316894531	-849.1879272460938	460.5067138671875	-18.47073936462402	-929.6786499023438	706.2894897460938	24.51044845581055	-747.3558959960938	54.74301528930664	-64.07658386230469	-796.4847412109375	353.9061279296875	-27.95481491088867	-562.3698120117188	122.2139663696289	-64.60004425048828	-598.494140625	99.25675964355469	-118.8512649536133	-655.7992553710938	70.9251708984375	-19.75819396972656	-782.9402465820312	45.84524154663086	-122.048713684082	-1110.708129882812	788.9549560546875	48.62738418579102	nan	nan	nan	nan	nan	nan	nan	nan	nan	nan	nan	nan	
196	1.95	-1137.953979492188	941.2958984375	-82.13602447509766	-1136.912231445312	950.4723510742188	-211.5948638916016	-1139.317138671875	1012.839782714844	-154.9586486816406	-891.5089111328125	1177.328125	-142.0353698730469	-1134.210571289062	1131.300415039062	-178.4163055419922	-1070.383911132812	1371.744750976562	-192.131103515625	-924.1648559570312	1305.959716796875	-150.9834136962891	-1139.185546875	1235.284423828125	-139.4516143798828	-1061.82763671875	1334.515747070312	-294.9169311523438	-964.7379760742188	1348.633666992188	-328.9771423339844	-960.8818969726562	1224.941040039062	-394.885986328125	-910.27001953125	1024.078125	-388.9425964355469	-985.3673095703125	1000.176513671875	-356.7940673828125	-763.3204345703125	853.3656005859375	-257.7029418945312	-777.4827270507812	813.2692260742188	-312.9529113769531	-865.0023193359375	929.4132690429688	-368.1094970703125	-709.17138671875	710.078125	-195.7142639160156	-760.8065185546875	751.6549682617188	-284.0585021972656	-723.2205200195312	783.7733154296875	-241.6174011230469	-1054.8037109375	1355.79541015625	-20.35780143737793	-1091.499145507812	1295.408203125	34.64779663085938	-1162.009765625	1038.265014648438	50.49361038208008	-1158.162475585938	1035.484375	-43.8406982421875	-1169.742553710938	787.6790161132812	94.25237274169922	-1161.625854492188	968.896240234375	68.24662780761719	-1154.28857421875	617.6360473632812	58.26710510253906	-1119.4677734375	681.89697265625	69.06151580810547	-1183.176025390625	703.5316162109375	94.92823791503906	-1017.417053222656	1576.36328125	-84.51767730712891	-824.9010009765625	1558.700805664062	-161.65771484375	-856.989501953125	1556.8046875	-66.20618438720703	-997.6160888671875	1580.244506835938	-227.6031494140625	-1056.623046875	889.1854858398438	-318.7878723144531	-1051.892456054688	888.5509033203125	23.37009811401367	-950.837890625	916.467529296875	-27.50031089782715	-931.6198120117188	906.5073852539062	-264.75146484375	-1091.609497070312	433.9118347167969	-287.7856140136719	-1064.324584960938	570.9258422851562	-300.3357849121094	-1301.69677734375	51.43820953369141	-252.8668060302734	-1195.471435546875	233.3340606689453	-279.8030090332031	-1095.890502929688	43.92091369628906	-193.636962890625	-1163.869750976562	35.27296447753906	-151.3881072998047	-1177.173583984375	44.75619125366211	-265.8536987304688	-1335.294311523438	51.47519683837891	-184.3296508789062	-842.9256591796875	458.6759338378906	-18.34535789489746	-923.3567504882812	704.2457885742188	25.15398406982422	-740.1574096679688	53.51645278930664	-65.29860687255859	-790.0509033203125	352.2692565917969	-27.90089797973633	-555.2722778320312	121.2919158935547	-62.27460861206055	-590.5737915039062	98.49385833740234	-117.4017181396484	-649.3518676757812	69.78475189208984	-19.35428810119629	-774.9783325195312	44.94630813598633	-123.903938293457	-1106.655883789062	786.945556640625	49.07120132446289	nan	nan	nan	nan	nan	nan	nan	nan	nan	nan	nan	nan	
197	1.96	-1130.88818359375	939.7374877929688	-81.42019653320312	-1129.650634765625	949.0941162109375	-210.8720855712891	-1131.891235351562	1011.316772460938	-154.2092590332031	-883.955322265625	1175.310302734375	-140.6030883789062	-1126.586547851562	1129.789428710938	-177.5078582763672	-1062.329833984375	1370.18115234375	-190.8455505371094	-916.313720703125	1304.043823242188	-149.448974609375	-1131.498901367188	1233.816040039062	-138.3852996826172	-1053.618530273438	1333.024658203125	-293.6179504394531	-956.4451904296875	1346.900756835938	-327.5545959472656	-953.01611328125	1223.164184570312	-393.4998779296875	-903.3649291992188	1022.068908691406	-387.5082702636719	-978.7510986328125	998.5234375	-355.5175170898438	-757.1424560546875	850.983154296875	-256.1137084960938	-771.6517944335938	810.7081909179688	-311.2277526855469	-858.5985717773438	927.217041015625	-366.5848388671875	-704.19873046875	707.167724609375	-193.7539672851562	-755.2879638671875	748.9873046875	-282.3109130859375	-717.8670654296875	780.9566040039062	-239.7463836669922	-1047.029296875	1354.071411132812	-18.99534225463867	-1083.95947265625	1293.647338867188	35.87681198120117	-1155.286376953125	1036.671997070312	51.1458740234375	-1151.142822265625	1034.049926757812	-43.16041564941406	-1165.3369140625	786.3726806640625	94.83355712890625	-1155.378662109375	967.4158325195312	68.92060852050781	-1152.084838867188	616.2113037109375	58.36090850830078	-1116.560424804688	679.8514404296875	69.20474243164062	-1179.900634765625	702.37841796875	95.25381469726562	-1009.814697265625	1574.581665039062	-83.13926696777344	-816.9983520507812	1557.10546875	-159.6083068847656	-849.4934692382812	1555.134765625	-64.20294952392578	-989.5104370117188	1578.56005859375	-226.1565399169922	-1049.46630859375	887.6610717773438	-318.0566711425781	-1045.027709960938	886.7529296875	24.09307670593262	-943.86181640625	914.4036865234375	-26.56720352172852	-924.4729614257812	904.5571899414062	-263.9000549316406	-1087.849853515625	433.0003967285156	-287.1883544921875	-1059.540283203125	569.7439575195312	-299.5997009277344	-1301.419189453125	52.29764556884766	-252.3955841064453	-1193.534423828125	233.5113677978516	-279.2326049804688	-1095.77490234375	43.71238327026367	-193.540771484375	-1163.908935546875	35.05355834960938	-151.2449645996094	-1177.083740234375	44.99355697631836	-265.6116943359375	-1335.090698242188	52.98562240600586	-183.877197265625	-836.2066040039062	457.0375061035156	-17.96413230895996	-916.6472778320312	702.4789428710938	25.91640663146973	-734.459228515625	52.11465835571289	-66.65087127685547	-783.5691528320312	350.4923706054688	-27.70458602905273	-549.4581909179688	119.2017669677734	-60.10059356689453	-584.021484375	96.7703857421875	-116.1052627563477	-644.365478515625	67.95269775390625	-19.08797454833984	-768.4678955078125	43.99994277954102	-125.8691711425781	-1102.176391601562	784.9723510742188	49.73094940185547	nan	nan	nan	nan	nan	nan	nan	nan	nan	nan	nan	nan	
